<?xml version="1.0" encoding="utf-8"?>
<svg xmlns="http://www.w3.org/2000/svg" xmlns:xlink="http://www.w3.org/1999/xlink" version="1.1"
    style="width:0;height:0;position:absolute;overflow:hidden;">
    <defs>
        <!-- Logo -->
        <symbol id="logo" viewBox="120 120 256 256">
            <defs>
                <path id="a" d="M271.34 350.42c-2.16-2.22-5.99-12.61-6.61-17.54-.61-4.93
          1.92-9.23 5.3-9.51 2.25-.19 3.86 1.21 4.83 4.22-.91 16.69-2.08
          24.3-3.52 22.83z" />
                <path id="b" d="M224.06 357.51c-2.76-3.69-7.34-21.3-7.92-29.72-.57-8.41 2.99-15.9
          7.48-16.55 3-.44 5.07 1.9 6.21 7-2.01 28.63-3.93 41.72-5.77 39.27z" />
                <path id="c" d="M177.16 363.7c-2.89-3.86-7.69-22.29-8.29-31.1-.6-8.8 3.13-16.63
          7.83-17.32 3.13-.45 5.3 1.99 6.49 7.32-2.1 29.97-4.11 43.67-6.03
          41.1z" />
                <path id="d" d="M361.5 280l26.5-4.32-25-10.5" />
                <path id="e" d="M286.5 154.7c-5.67-31.24-28.59-39.95-37.59-40.54-8.99-.58-25.59
          14.08-14.06 53.26 7.68 26.13 21.5 40.01 41.46 41.65 10.58-15.41
          13.98-33.54 10.19-54.37z" />
                <path id="f" d="M252.5 340.18c82-1.5 109-45.5 110-68.18S354 185.68 248
          184s-120.62 54.63-120 83.68c1.13 49.04 42.5 74 124.5 72.5z" />
                <path id="g" d="M324.5 201.68c-2.68-.84 9.87 13.38 13.46 28.39s3.05 18.55 3.54
          29.61c.54 12.06.38 19.57-5.5 36.32-3.92 11.17-9.92 21.39-18
          30.68L293 336c23-16.88 34.67-41.82 35-74.82s-11.17-57-34.5-72c17
          5.83 27.33 10 31 12.5z" />
                <path id="h" d="M168 251a6.5 6.5 0 1 1-13 0 6.5 6.5 0 0 1 13 0z" />
                <path id="i" d="M293.5 362.06c2.56-2.67 7.92-16.23 9.19-22.87
          1.28-6.64-.83-12.94-4.34-13.9-2.34-.64-4.21 1.02-5.61 4.96-1.2
          22.98-.94 33.58.76 31.81z" />
                <path id="j" d="M216.5 338.75c19.06.59 40.5 1.6 52.75 1.43C291 319.51 316 299.5
          312 250.5s-44.87-63.21-50.75-66.5c-17.37-.79-36.29.78-55.45 3
          10.64-.18 25 1.21 37.2 7.48 15 7.66 43 26.5 46 54.66 3 28.17-1.67
          47.67-21 64.67s-30.06 24.1-51.5 24.94z" />
                <path id="k" d="M252 340c52-2.12 74.31-10.5 98.33-41.83-19.64 6.33-44.02 20.83-92
          21.83-20.62.43-38.88 2.81-58.33 1.77-19.45-1.03-47.73-11.37-56-14.44
          23.16 25.29 56 34.8 108 32.67z" />
                <path id="l" d="M320 182.18c26.5-17.5 25.5-42 22.5-50.5s-23-18-54.5 8c-21
          17.33-28.33 35.5-22 54.5 18.33 3.66 36.33-.34 54-12z" />
                <path id="m" d="M328.43 346.9c2.56-2.67 8.72-17.83 9.99-24.47 1.28-6.64
          2.29-8.47-1.22-9.43-2.34-.64-5.38 2.36-9.13 9-1.46 18.38-1.34
          26.68.36 24.9z" />
                <path id="n" d="M240 368c3.33-3.48 10.33-21.19 12-29.86
          1.67-8.66-1.08-16.89-5.67-18.14-3.05-.83-5.5 1.33-7.33 6.48-1.56
          30-1.22 43.84 1 41.52z" />
                <path id="o" d="M233.5 251.5a6.5 6.5 0 1 1-13 0 6.5 6.5 0 0 1 13 0z" />
            </defs>
            <use fill="#2e2514" xlink:href="#a" />
            <use fill="none" stroke="#161008" stroke-width="4" xlink:href="#a" />
            <path fill="#161008" d="M187.64 282.8c0 1-.85 1.81-1.9
        1.81s-1.91-.81-1.91-1.81c0-.99.86-1.8 1.91-1.8s1.9.81 1.9 1.8z" />
            <use fill="#2e2514" xlink:href="#b" />
            <use fill="none" stroke="#161008" stroke-width="4" xlink:href="#b" />
            <path fill="#161008" d="M211.12 283.37c0 1.04-.89 1.88-1.98
        1.88s-1.97-.84-1.97-1.88c0-1.03.88-1.87 1.97-1.87s1.98.84 1.98 1.87z" />
            <path fill="#161008" fill-opacity=".13" d="M356.44 372.25c0 13.66-45.8 24.75-102.22 24.75S152 385.91 152
        372.25s45.8-24.75 102.22-24.75 102.22 11.09 102.22 24.75z" />
            <use fill="#2e2514" xlink:href="#c" />
            <use fill="none" stroke="#161008" stroke-width="4" xlink:href="#c" />
            <use fill="#2e2514" xlink:href="#d" />
            <use fill="none" stroke="#161008" stroke-width="4" xlink:href="#d" />
            <use fill="#bbe0e5" opacity=".5" xlink:href="#e" />
            <use fill="none" stroke="#adc9ca" stroke-width="2" opacity=".5" xlink:href="#e" />
            <use fill="#ffe74f" xlink:href="#f" />
            <use fill="none" stroke="#161008" stroke-width="4" xlink:href="#f" />
            <use fill="#2a1a12" xlink:href="#g" />
            <use fill="none" stroke="#161008" stroke-width="3" xlink:href="#g" />
            <use xlink:href="#h" />
            <use fill="none" xlink:href="#h" />
            <use fill="#2e2514" xlink:href="#i" />
            <use fill="none" stroke="#161008" stroke-width="4" xlink:href="#i" />
            <path fill="none" stroke="#161008" stroke-width="4" d="M209.5 283.18c-11.5 7.37-19 4.62-24-.5" />
            <use fill="#2a1a12" xlink:href="#j" />
            <use fill="none" stroke="#161008" stroke-width="4" xlink:href="#j" />
            <use fill-opacity=".23" xlink:href="#k" />
            <use fill="none" xlink:href="#k" />
            <use fill="#bbe0e5" opacity=".5" xlink:href="#l" />
            <use fill="none" stroke="#adc9ca" stroke-width="2" opacity=".5" xlink:href="#l" />
            <use fill="#2e2414" xlink:href="#m" />
            <use fill="none" stroke="#161008" stroke-width="4" xlink:href="#m" />
            <use fill="#2e2514" xlink:href="#n" />
            <use fill="none" stroke="#161008" stroke-width="4" xlink:href="#n" />
            <use xlink:href="#o" />
            <use fill="none" xlink:href="#o" />
        </symbol>

        <!-- SVG Repo -->
        <symbol viewBox="0 0 24 24" id="markdown" fill="currentColor">
            <path
                d="M22.269 19.385H1.731a1.73 1.73 0 0 1-1.73-1.73V6.345a1.73 1.73 0 0 1 1.73-1.73h20.538a1.73 1.73 0 0 1 1.73 1.73v11.308a1.73 1.73 0 0 1-1.73 1.731zm-16.5-3.462v-4.5l2.308 2.885 2.307-2.885v4.5h2.308V8.078h-2.308l-2.307 2.885-2.308-2.885H3.461v7.847zM21.231 12h-2.308V8.077h-2.307V12h-2.308l3.461 4.039z" />
        </symbol>

        <!-- HeroIcons -->
        <symbol viewBox="0 0 20 20" id="information-circle" fill="currentColor">
            <path fill-rule="evenodd"
                d="M18 10a8 8 0 11-16 0 8 8 0 0116 0zm-7-4a1 1 0 11-2 0 1 1 0 012 0zM9 9a1 1 0 000 2v3a1 1 0 001 1h1a1 1 0 100-2v-3a1 1 0 00-1-1H9z"
                clip-rule="evenodd" />
        </symbol>
        <symbol viewBox="0 0 20 20" id="annotation" fill="currentColor">
            <path fill-rule="evenodd"
                d="M18 13V5a2 2 0 00-2-2H4a2 2 0 00-2 2v8a2 2 0 002 2h3l3 3 3-3h3a2 2 0 002-2zM5 7a1 1 0 011-1h8a1 1 0 110 2H6a1 1 0 01-1-1zm1 3a1 1 0 100 2h3a1 1 0 100-2H6z"
                clip-rule="evenodd" />
        </symbol>
        <symbol viewBox="0 0 20 20" id="pencil" fill="currentColor">
            <path
                d="M13.586 3.586a2 2 0 112.828 2.828l-.793.793-2.828-2.828.793-.793zM11.379 5.793L3 14.172V17h2.828l8.38-8.379-2.83-2.828z" />
        </symbol>
        <symbol viewBox="0 0 20 20" id="eye" fill="currentColor">
            <path d="M10 12a2 2 0 100-4 2 2 0 000 4z" />
            <path fill-rule="evenodd"
                d="M.458 10C1.732 5.943 5.522 3 10 3s8.268 2.943 9.542 7c-1.274 4.057-5.064 7-9.542 7S1.732 14.057.458 10zM14 10a4 4 0 11-8 0 4 4 0 018 0z"
                clip-rule="evenodd" />
        </symbol>
    </defs>
</svg>