<?xml version="1.0" encoding="utf-8"?>
<svg xmlns="http://www.w3.org/2000/svg" xmlns:xlink="http://www.w3.org/1999/xlink" version="1.1"
    style="width:0;height:0;position:absolute;overflow:hidden;">
    <defs>
        <!-- SVG Repo -->
        <symbol viewBox="0 0 24 24" id="markdown" fill="currentColor">
            <path
                d="M22.269 19.385H1.731a1.73 1.73 0 0 1-1.73-1.73V6.345a1.73 1.73 0 0 1 1.73-1.73h20.538a1.73 1.73 0 0 1 1.73 1.73v11.308a1.73 1.73 0 0 1-1.73 1.731zm-16.5-3.462v-4.5l2.308 2.885 2.307-2.885v4.5h2.308V8.078h-2.308l-2.307 2.885-2.308-2.885H3.461v7.847zM21.231 12h-2.308V8.077h-2.307V12h-2.308l3.461 4.039z" />
        </symbol>

        <!-- HeroIcons -->
        <symbol viewBox="0 0 20 20" id="information-circle" fill="currentColor">
            <path fill-rule="evenodd"
                d="M18 10a8 8 0 11-16 0 8 8 0 0116 0zm-7-4a1 1 0 11-2 0 1 1 0 012 0zM9 9a1 1 0 000 2v3a1 1 0 001 1h1a1 1 0 100-2v-3a1 1 0 00-1-1H9z"
                clip-rule="evenodd" />
        </symbol>
        <symbol viewBox="0 0 20 20" id="annotation" fill="currentColor">
            <path fill-rule="evenodd"
                d="M18 13V5a2 2 0 00-2-2H4a2 2 0 00-2 2v8a2 2 0 002 2h3l3 3 3-3h3a2 2 0 002-2zM5 7a1 1 0 011-1h8a1 1 0 110 2H6a1 1 0 01-1-1zm1 3a1 1 0 100 2h3a1 1 0 100-2H6z"
                clip-rule="evenodd" />
        </symbol>
        <symbol viewBox="0 0 20 20" id="pencil" fill="currentColor">
            <path
                d="M13.586 3.586a2 2 0 112.828 2.828l-.793.793-2.828-2.828.793-.793zM11.379 5.793L3 14.172V17h2.828l8.38-8.379-2.83-2.828z" />
        </symbol>
        <symbol viewBox="0 0 20 20" id="eye" fill="currentColor">
            <path d="M10 12a2 2 0 100-4 2 2 0 000 4z" />
            <path fill-rule="evenodd"
                d="M.458 10C1.732 5.943 5.522 3 10 3s8.268 2.943 9.542 7c-1.274 4.057-5.064 7-9.542 7S1.732 14.057.458 10zM14 10a4 4 0 11-8 0 4 4 0 018 0z"
                clip-rule="evenodd" />
        </symbol>
    </defs>
</svg>